<?xml version="1.0" encoding="iso-8859-1"?>
<!-- Generator: Adobe Illustrator 16.0.0, SVG Export Plug-In . SVG Version: 6.00 Build 0)  -->
<!DOCTYPE svg PUBLIC "-//W3C//DTD SVG 1.1//EN" "http://www.w3.org/Graphics/SVG/1.1/DTD/svg11.dtd">
<svg version="1.1" id="Capa_1" xmlns="http://www.w3.org/2000/svg" xmlns:xlink="http://www.w3.org/1999/xlink" x="0px" y="0px"
	 width="31.505px" height="31.505px" viewBox="0 0 31.505 31.505" style="enable-background:new 0 0 31.505 31.505; fill:#FFF"
	 xml:space="preserve">
<g>
	<path d="M22.48,10.922h-1.947l5.461-10.921h-7.879l-2.28,5.759l-0.163-0.001L13.39,0H5.511l5.461,10.921H9.025v7.416
		c-0.945,1.356-1.504,3.004-1.504,4.78c0,4.57,3.675,8.294,8.224,8.386v0.002c0.005,0,0.01-0.001,0.015-0.001l0,0l0,0
		c4.55-0.092,8.224-3.814,8.224-8.386c0-1.776-0.559-3.423-1.504-4.78V10.922z M10.98,12.876h4.765v0.001h4.78v3.466
		c-1.344-0.981-2.986-1.568-4.765-1.604v-0.003c-0.004,0-0.008,0.001-0.013,0.001c-0.001,0-0.001,0-0.002,0l0,0
		c-1.779,0.037-3.421,0.624-4.765,1.605V12.876z M15.759,28.896c-3.118-0.084-5.63-2.642-5.63-5.778
		c0-3.134,2.505-5.688,5.617-5.778c3.119,0.084,5.63,2.641,5.63,5.779C21.376,26.251,18.871,28.805,15.759,28.896z"/>
</g>
<g>
</g>
<g>
</g>
<g>
</g>
<g>
</g>
<g>
</g>
<g>
</g>
<g>
</g>
<g>
</g>
<g>
</g>
<g>
</g>
<g>
</g>
<g>
</g>
<g>
</g>
<g>
</g>
<g>
</g>
</svg>
