<?xml version="1.0" encoding="iso-8859-1"?>
<!-- Generator: Adobe Illustrator 16.0.0, SVG Export Plug-In . SVG Version: 6.00 Build 0)  -->
<!DOCTYPE svg PUBLIC "-//W3C//DTD SVG 1.1//EN" "http://www.w3.org/Graphics/SVG/1.1/DTD/svg11.dtd">
<svg version="1.1" id="Capa_1" xmlns="http://www.w3.org/2000/svg" xmlns:xlink="http://www.w3.org/1999/xlink" x="0px" y="0px"
	 width="31.371px" height="31.371px" viewBox="0 0 31.371 31.371" style="enable-background:new 0 0 31.371 31.371; fill:#FFF"
	 xml:space="preserve">
<g>
	<g>
		<path d="M21.54,10.95V6.655h-3.643L13.432,0H6.486l4.467,6.655H9.83v4.295c-3.119,1.955-5.2,5.414-5.2,9.365
			c0,6.105,4.95,11.057,11.056,11.057c6.105,0,11.055-4.951,11.055-11.057C26.739,16.363,24.659,12.905,21.54,10.95z M11.768,8.593
			h7.833v1.395c-1.219-0.463-2.535-0.728-3.917-0.728c-1.382,0-2.698,0.265-3.917,0.728L11.768,8.593L11.768,8.593z M15.685,28.464
			c-4.493,0-8.148-3.656-8.148-8.147c0-4.494,3.655-8.148,8.148-8.148c4.493,0,8.148,3.655,8.148,8.148
			C23.833,24.808,20.178,28.464,15.685,28.464z"/>
		<polygon points="21.39,5.205 24.883,0 17.938,0 16.515,2.122 18.585,5.205 		"/>
		<polygon points="12.941,17.137 13.265,18.615 14.874,17.85 14.9,17.85 14.9,24.531 16.808,24.531 16.808,16.099 15.173,16.099 		
			"/>
	</g>
</g>
<g>
</g>
<g>
</g>
<g>
</g>
<g>
</g>
<g>
</g>
<g>
</g>
<g>
</g>
<g>
</g>
<g>
</g>
<g>
</g>
<g>
</g>
<g>
</g>
<g>
</g>
<g>
</g>
<g>
</g>
</svg>
